<svg width="18" height="18" viewBox="0 0 18 18" fill="none" xmlns="http://www.w3.org/2000/svg">
<path d="M9 15.9375H9.00007C10.8394 15.9354 12.6027 15.2038 13.9033 13.9033C15.2038 12.6027 15.9354 10.8394 15.9375 9.00007V9C15.9375 7.62789 15.5306 6.2866 14.7683 5.14573C14.006 4.00487 12.9225 3.11567 11.6549 2.59059C10.3872 2.0655 8.99231 1.92812 7.64656 2.1958C6.30082 2.46349 5.06468 3.12422 4.09445 4.09445C3.12422 5.06467 2.46349 6.30082 2.19581 7.64656C1.92812 8.9923 2.06551 10.3872 2.59059 11.6549C3.11567 12.9225 4.00487 14.006 5.14573 14.7683C6.2866 15.5306 7.6279 15.9375 9 15.9375ZM8.4375 9V8.9375H8.375C8.22582 8.9375 8.08275 8.87824 7.97726 8.77275C7.87177 8.66726 7.8125 8.52418 7.8125 8.375C7.8125 8.22582 7.87177 8.08274 7.97726 7.97725C8.08275 7.87176 8.22582 7.8125 8.375 7.8125C8.68995 7.8125 8.99199 7.93761 9.21469 8.16031C9.43739 8.38301 9.5625 8.68506 9.5625 9V12.125V12.1875H9.625C9.77419 12.1875 9.91726 12.2468 10.0228 12.3523C10.1282 12.4577 10.1875 12.6008 10.1875 12.75C10.1875 12.8992 10.1282 13.0423 10.0228 13.1477C9.91726 13.2532 9.77419 13.3125 9.625 13.3125C9.31006 13.3125 9.00801 13.1874 8.78531 12.9647C8.56262 12.742 8.4375 12.4399 8.4375 12.125V9ZM4.52072 2.29628C5.84658 1.41036 7.40537 0.937507 8.99997 0.9375C11.1376 0.939766 13.187 1.78994 14.6985 3.30146C16.2101 4.813 17.0602 6.86243 17.0625 9.00007C17.0625 10.5947 16.5896 12.1534 15.7037 13.4793C14.8178 14.8052 13.5586 15.8385 12.0854 16.4488C10.6122 17.059 8.99106 17.2187 7.42709 16.9076C5.86312 16.5965 4.42652 15.8286 3.29896 14.701C2.17139 13.5735 1.40352 12.1369 1.09242 10.5729C0.781329 9.00894 0.940993 7.38784 1.55122 5.91461C2.16146 4.44139 3.19485 3.1822 4.52072 2.29628ZM7.8125 5.5625C7.8125 5.38944 7.86382 5.22027 7.95997 5.07638C8.05611 4.93248 8.19277 4.82033 8.35266 4.75411C8.51254 4.68788 8.68847 4.67055 8.85821 4.70431C9.02794 4.73807 9.18385 4.82141 9.30622 4.94378C9.42859 5.06615 9.51193 5.22206 9.54569 5.3918C9.57945 5.56153 9.56212 5.73746 9.4959 5.89735C9.42967 6.05723 9.31752 6.19389 9.17363 6.29004C9.02973 6.38618 8.86056 6.4375 8.6875 6.4375C8.45544 6.4375 8.23288 6.34531 8.06879 6.18122C7.90469 6.01712 7.8125 5.79456 7.8125 5.5625Z" fill="#B71A2A" stroke="#B71A2A" stroke-width="0.125"/>
</svg>
